<svg version="1.1" id="Layer_1" xmlns="http://www.w3.org/2000/svg" xmlns:xlink="http://www.w3.org/1999/xlink" x="0px" y="0px"
	 viewBox="0 0 244.9 362.8" style="enable-background:new 0 0 244.9 362.8;" xml:space="preserve">
<style type="text/css">
	.st0{fill:none;stroke:#4d4d4e;stroke-width:1;stroke-miterlimit:5;}
    .st0 {
        stroke-dasharray: 2000;
        stroke-dashoffset: 0;
        -webkit-animation: dash 8s linear forwards;
        -o-animation: dash 8s linear forwards;
        -moz-animation: dash 8s linear forwards;
        animation: dash 8s linear forwards;
    }

    @-webkit-keyframes dash {
        from {
            stroke-dashoffset: 2000;
        }
        to {
            stroke-dashoffset: 0;
        }
    }
</style>
<g id="XMLID_82_">
	<path id="XMLID_19_" class="st0" d="M48.5,128.5c19.3-33.6,38.7-67.2,58-100.9c1.5-2.6,3-3.7,6.2-3.7c12.2,0.2,24.3,0.1,36.5,0
		c2.5,0,4.3,0.4,5.7,2.9c19.8,34.5,39.8,68.9,59.7,103.3c0.4,0.7,0.6,1.5,0.9,2.4c-17.6,0-34.9,0-52.2,0c-2.7,0-3.4-2.1-4.6-4
		C149.9,114,141,99.3,132,84.7c-0.3-0.5-0.8-1-1.6-1.9c-5.6,9.1-11,17.9-16.3,26.7c-4.2,6.8-8.4,13.6-12.4,20.4
		c-1,1.6-2.1,2.3-4,2.3c-16.3-0.1-32.6,0-49,0c-0.4,0-0.9-0.3-1.3-0.4C46.9,130.3,48,129.4,48.5,128.5z M184.3,182.6
		c-0.4,9.6-2.7,20.4-10.6,29.5c-6.3,7.2-16.2,8.3-23.5,2c-17-14.7-17.6-48.9-1.2-64.1c7.5-7,17.2-6.5,24.2,1.4
		C180.7,159.7,184.2,169.5,184.3,182.6z M100.5,188c-1,8.1-3,15.3-7.4,21.8c-8.7,12.7-21.1,12.9-30.3,0.5c-6-8.1-9.1-17.3-8.8-27.5
		c-0.2-10.7,2.6-20.4,9.3-28.9c8-10.3,19.2-10.8,27.5-0.7C99,163.2,102.1,174.6,100.5,188z M205,245.2c-9.5,16.3-19,32.6-28.5,48.9
		c-7.2,12.4-14.4,24.7-21.5,37.1c-1.3,2.4-2.9,3.1-5.6,3.1c-12.5-0.2-25-0.3-37.5-0.3c-2.2,0-3.6-0.5-4.8-2.6
		c-19.8-34.7-39.7-69.4-59.5-104c-0.2-0.4-0.4-0.9-0.6-1.6c17.4,0,34.4,0,51.3-0.1c2.5,0,3,1.7,3.9,3.2c6.1,10,12.2,20,18.3,30.1
		c3.3,5.4,6.5,10.7,10.2,16.7c3-5,5.8-9.5,8.6-14c6.7-10.9,13.4-21.8,20.1-32.8c1.2-2,2.5-3.1,5-3.1c16.5,0.2,33,0.1,49.5,0.2
		c0.4,0,0.9,0.2,1.9,0.5C212.1,232.9,208.6,239.1,205,245.2z"/>
	<path id="XMLID_31_" class="st0" d="M130.4,82.8c-5.6,9.1-11,17.9-16.3,26.7c-4.2,6.8-8.4,13.6-12.4,20.4c-1,1.6-2.1,2.3-4,2.3
		c-16.3-0.1-32.6,0-49,0c-0.4,0-0.9-0.3-1.3-0.4c-0.5-1.5,0.6-2.3,1.1-3.2c19.3-33.6,38.7-67.2,58-100.9c1.5-2.6,3-3.7,6.2-3.7
		c12.2,0.2,24.3,0.1,36.5,0c2.5,0,4.3,0.4,5.7,2.9c19.8,34.5,39.8,68.9,59.7,103.3c0.4,0.7,0.6,1.5,0.9,2.4c-17.6,0-34.9,0-52.2,0
		c-2.7,0-3.4-2.1-4.6-4C149.9,114,141,99.3,132,84.7C131.7,84.2,131.2,83.7,130.4,82.8z"/>
	<path id="XMLID_30_" class="st0" d="M47,225.9c17.4,0,34.4,0,51.3-0.1c2.5,0,3,1.7,3.9,3.2c6.1,10,12.2,20,18.3,30.1
		c3.3,5.4,6.5,10.7,10.2,16.7c3-5,5.8-9.5,8.6-14c6.7-10.9,13.4-21.8,20.1-32.8c1.2-2,2.5-3.1,5-3.1c16.5,0.2,33,0.1,49.5,0.2
		c0.4,0,0.9,0.2,1.9,0.5c-3.7,6.4-7.2,12.6-10.7,18.7c-9.5,16.3-19,32.6-28.5,48.9c-7.2,12.4-14.4,24.7-21.5,37.1
		c-1.3,2.4-2.9,3.1-5.6,3.1c-12.5-0.2-25-0.3-37.5-0.3c-2.2,0-3.6-0.5-4.8-2.6c-19.8-34.7-39.7-69.4-59.5-104
		C47.4,227,47.3,226.5,47,225.9z"/>
	<path id="XMLID_29_" class="st0" d="M53.9,182.8c-0.2-10.7,2.6-20.4,9.3-28.9c8-10.3,19.2-10.8,27.5-0.7c8.3,10,11.4,21.5,9.8,34.8
		c-1,8.1-3,15.3-7.4,21.8c-8.7,12.7-21.1,12.9-30.3,0.5C56.7,202.1,53.6,193,53.9,182.8z"/>
	<path id="XMLID_28_" class="st0" d="M184.3,182.6c-0.4,9.6-2.7,20.4-10.6,29.5c-6.3,7.2-16.2,8.3-23.5,2
		c-17-14.7-17.6-48.9-1.2-64.1c7.5-7,17.2-6.5,24.2,1.4C180.7,159.7,184.2,169.5,184.3,182.6z"/>
</g>
</svg>
